<?xml version="1.0" encoding="utf-8"?>
<!-- Generator: Adobe Illustrator 19.1.0, SVG Export Plug-In . SVG Version: 6.00 Build 0)  -->
<svg version="1.1" id="Layer_1" xmlns="http://www.w3.org/2000/svg" xmlns:xlink="http://www.w3.org/1999/xlink" x="0px" y="0px"
	 viewBox="-194 383 221.8 28" style="enable-background:new -194 383 221.8 28;" xml:space="preserve">
<style type="text/css">
	.st0{fill:#FFFFFF;}
</style>
<g>
	<g>
		<path class="st0" d="M-162.5,410.9L-162.5,410.9c0.1,0,0.2,0,0.3,0c2.5,0,4.5-1.5,5.4-3.7l3.5-8.5h-35.6l-5.1,12.2H-162.5z"/>
	</g>
	<g>
		<path class="st0" d="M-178.4,383.2L-178.4,383.2c-0.1,0-0.2,0-0.3,0c-2.5,0-4.5,1.5-5.4,3.7l-3.5,8.5h35.6l5.1-12.2H-178.4z"/>
	</g>
</g>
<path class="st0" d="M-94.6,389.7h-3.2V383h-4.8v6.7h-3.2v4.3h3.2v16.4h4.8V394h3.2V389.7z M-84.5,389.1c-2.8,0-5.5,1.2-7.6,3.2
	c-2,2-3.1,4.7-3.1,7.6c0,2.9,1.1,5.6,3,7.7c2.1,2.2,4.7,3.3,7.7,3.3c3.1,0,5.7-1.1,7.8-3.2c2.1-2.1,3.1-4.7,3.1-7.9
	c0-2.9-1.2-5.7-3.4-7.8C-79,390.1-81.5,389.1-84.5,389.1z M-84.4,406.2c-3.5,0-5.8-2.4-5.8-6.2c0-3.6,2.4-6.1,5.8-6.1
	c3.3,0,5.8,2.4,5.8,6C-78.5,403.8-80.9,406.2-84.4,406.2z M-140.5,383.1l-11.5,27.6h5.6l3-7.4l9.9,0l2.8,7.4h5.6l-11.6-27.6H-140.5z
	 M-141.6,398.6l3-8.3h0.1l3.2,8.3H-141.6z M-112,398.7c0,5-1,7.6-4.5,7.6c-3.5,0-4.3-2.4-4.3-7.3v-9.3h-4.8v12c0,6,2.9,9.2,8,9.2
	c2.3,0,4.1-0.9,5.5-2.8v2.2h4.8v-20.7h-4.7L-112,398.7L-112,398.7z M5.8,389.1c-2.8,0-5.6,1.2-7.7,3.5c-1.9,2-2.9,4.6-2.9,7.5
	c0,2.8,1.1,5.6,3.1,7.6c2.1,2.2,4.7,3.2,7.7,3.2c4.6,0,8.2-2.6,10-7.1h-5.2c-1,1.7-2.8,2.6-4.9,2.6c-3.3,0-5.4-1.8-5.7-4.8h16.5
	c0-0.3,0-0.7,0-1c0-2.7-0.6-4.9-2-6.8C12.6,390.8,9.4,389.1,5.8,389.1z M0.3,397.8c0.7-2.6,3-4.2,5.5-4.2c2.9,0,4.9,1.5,5.7,4.2
	C11.5,397.8,0.3,397.8,0.3,397.8z M22.2,392.1v-2.4h-4.5v20.7h4.8v-10.6c0-3.9,0.9-5.6,5-5.9v-4.5C25.3,389.4,23.7,390.3,22.2,392.1
	z M-10.7,391.4c-1.8-1.5-3.8-2.2-6.4-2.2c-2.7,0-5.2,0.9-7.1,2.7c-2.3,2.1-3.5,5-3.5,8.1c0,3.3,1.4,6.4,3.9,8.5
	c1.8,1.6,4.2,2.4,6.8,2.4c2.4,0,4.5-0.7,6.4-2.2v1.7H-6V383h-4.7L-10.7,391.4L-10.7,391.4z M-16.5,406.2c-3.7,0-6.2-2.7-6.2-6.1
	c0-3.3,2.7-6.1,6-6.1c3.4,0,5.9,2.7,5.9,6.2C-10.9,403.6-13.5,406.2-16.5,406.2z M-34.2,392.2c-1.3-2-3.5-3-6.5-3
	c-3.1,0-5.6,1-7.7,3.2c-1.9,2-3,4.7-3,7.6c0,6.2,4.6,10.9,10.7,10.9c3.2,0,5.3-0.9,6.4-3v2.5h4.7v-20.7h-4.7V392.2z M-40.4,406
	c-3.2,0-6-2.5-6-6.1c0-3.4,2.7-5.9,5.9-5.9c3,0,5.8,2.7,5.8,6.2C-34.7,403.3-37.4,406-40.4,406z M-59.2,383h-18.9v4.8h6.8v22.6h5.4
	v-22.6h6.8L-59.2,383L-59.2,383z M-51.3,389.4c-2.2,0-3.9,0.9-5.3,2.7v-2.4h-4.5v20.7h4.8v-10.6c0-3.9,0.9-5.6,5-5.9V389.4z"/>
</svg>
