<?xml version="1.0" encoding="UTF-8" standalone="no"?><svg xmlns="http://www.w3.org/2000/svg" xmlns:xlink="http://www.w3.org/1999/xlink" contentScriptType="application/ecmascript" contentStyleType="text/css" height="154px" preserveAspectRatio="none" style="width:566px;height:154px;" version="1.1" viewBox="0 0 566 154" width="566px" zoomAndPan="magnify"><defs><filter height="300%" id="f12yxly0a8vevp" width="300%" x="-1" y="-1"><feGaussianBlur result="blurOut" stdDeviation="2.0"/><feColorMatrix in="blurOut" result="blurOut2" type="matrix" values="0 0 0 0 0 0 0 0 0 0 0 0 0 0 0 0 0 0 .4 0"/><feOffset dx="4.0" dy="4.0" in="blurOut2" result="blurOut3"/><feBlend in="SourceGraphic" in2="blurOut3" mode="normal"/></filter></defs><g><ellipse cx="16" cy="75" fill="#FE0600" filter="url(#f12yxly0a8vevp)" rx="10" ry="10" style="stroke: none; stroke-width: 1.0;"/><rect fill="#06A09D" filter="url(#f12yxly0a8vevp)" height="50" rx="12.5" ry="12.5" style="stroke: #313C53; stroke-width: 1.5;" width="85" x="86" y="50"/><line style="stroke: #313C53; stroke-width: 1.5;" x1="86" x2="171" y1="76.4883" y2="76.4883"/><text fill="#F7F7F5" font-family="sans-serif" font-size="14" lengthAdjust="spacingAndGlyphs" textLength="65" x="96" y="68.5352">Proposed</text><rect fill="#06A09D" filter="url(#f12yxly0a8vevp)" height="50" rx="12.5" ry="12.5" style="stroke: #313C53; stroke-width: 1.5;" width="83" x="231" y="50"/><line style="stroke: #313C53; stroke-width: 1.5;" x1="231" x2="314" y1="76.4883" y2="76.4883"/><text fill="#F7F7F5" font-family="sans-serif" font-size="14" lengthAdjust="spacingAndGlyphs" textLength="63" x="241" y="68.5352">Accepted</text><rect fill="#06A09D" filter="url(#f12yxly0a8vevp)" height="50" rx="12.5" ry="12.5" style="stroke: #313C53; stroke-width: 1.5;" width="101" x="374" y="8"/><line style="stroke: #313C53; stroke-width: 1.5;" x1="374" x2="475" y1="34.4883" y2="34.4883"/><text fill="#F7F7F5" font-family="sans-serif" font-size="14" lengthAdjust="spacingAndGlyphs" textLength="81" x="384" y="26.5352">Superseded</text><rect fill="#06A09D" filter="url(#f12yxly0a8vevp)" height="50" rx="12.5" ry="12.5" style="stroke: #313C53; stroke-width: 1.5;" width="98" x="375.5" y="93"/><line style="stroke: #313C53; stroke-width: 1.5;" x1="375.5" x2="473.5" y1="119.4883" y2="119.4883"/><text fill="#F7F7F5" font-family="sans-serif" font-size="14" lengthAdjust="spacingAndGlyphs" textLength="78" x="385.5" y="111.5352">Deprecated</text><ellipse cx="545" cy="76" fill="none" filter="url(#f12yxly0a8vevp)" rx="10" ry="10" style="stroke: #FE0600; stroke-width: 1.0;"/><ellipse cx="545.5" cy="76.5" fill="#FE0600" rx="6" ry="6" style="stroke: none; stroke-width: 1.0;"/><!--link *start to Proposed--><path d="M26.3821,75 C38.8182,75 60.5095,75 80.7109,75 " fill="none" id="*start-Proposed" style="stroke: #313C53; stroke-width: 1.0;"/><polygon fill="#313C53" points="85.8082,75,76.8082,71,80.8082,75,76.8082,79,85.8082,75" style="stroke: #313C53; stroke-width: 1.0;"/><!--link Proposed to Accepted--><path d="M171.3149,75 C188.2948,75 207.8816,75 225.2724,75 " fill="none" id="Proposed-Accepted" style="stroke: #313C53; stroke-width: 1.0;"/><polygon fill="#313C53" points="230.5938,75,221.5938,71,225.5938,75,221.5938,79,230.5938,75" style="stroke: #313C53; stroke-width: 1.0;"/><!--link Proposed to Superseded--><path d="M171.1774,52.6251 C189.133,44.4077 210.5683,36.1121 231,32 C276.7021,22.802 329.7146,23.8697 368.6829,26.7765 " fill="none" id="Proposed-Superseded" style="stroke: #313C53; stroke-width: 1.0;"/><polygon fill="#313C53" points="373.8449,27.1783,365.1826,22.4917,368.86,26.7902,364.5615,30.4676,373.8449,27.1783" style="stroke: #313C53; stroke-width: 1.0;"/><!--link Proposed to Deprecated--><path d="M171.2415,96.8051 C189.207,104.8239 210.6322,112.9342 231,117 C277.3471,126.2517 331.1916,125.637 370.2963,123.2059 " fill="none" id="Proposed-Deprecated" style="stroke: #313C53; stroke-width: 1.0;"/><polygon fill="#313C53" points="375.4723,122.8681,366.2308,119.4629,370.4829,123.1938,366.752,127.4459,375.4723,122.8681" style="stroke: #313C53; stroke-width: 1.0;"/><!--link Accepted to Superseded--><path d="M314.0347,63.5233 C330.9072,58.8612 350.655,53.4045 368.7507,48.4044 " fill="none" id="Accepted-Superseded" style="stroke: #313C53; stroke-width: 1.0;"/><polygon fill="#313C53" points="373.807,47.0073,364.0667,45.5489,368.9876,48.339,366.1975,53.2599,373.807,47.0073" style="stroke: #313C53; stroke-width: 1.0;"/><!--link Accepted to Deprecated--><path d="M314.0347,86.7499 C331.3893,91.6595 351.7858,97.4295 370.2976,102.6664 " fill="none" id="Accepted-Deprecated" style="stroke: #313C53; stroke-width: 1.0;"/><polygon fill="#313C53" points="375.4647,104.1282,367.8933,97.8295,370.6535,102.7672,365.7157,105.5274,375.4647,104.1282" style="stroke: #313C53; stroke-width: 1.0;"/><!--link Superseded to *end--><path d="M475.2536,51.1112 C495.241,58.2437 516.6587,65.8865 530.4078,70.7928 " fill="none" id="Superseded-*end" style="stroke: #313C53; stroke-width: 1.0;"/><polygon fill="#313C53" points="535.4565,72.5944,528.3245,65.8021,530.7474,70.9138,525.6357,73.3367,535.4565,72.5944" style="stroke: #313C53; stroke-width: 1.0;"/><!--link Deprecated to *end--><path d="M473.512,100.917 C493.9391,93.7972 516.1531,86.0545 530.3072,81.1211 " fill="none" id="Deprecated-*end" style="stroke: #313C53; stroke-width: 1.0;"/><polygon fill="#313C53" points="535.139,79.437,525.3239,78.6219,530.4176,81.0826,527.9569,86.1762,535.139,79.437" style="stroke: #313C53; stroke-width: 1.0;"/><!--
@startuml

left to right direction

skinparam background {
  Color transparent
}
skinparam Arrow {
  Color #313c53
}
skinparam State {
  BackgroundColor #06A09D
  BorderColor #313c53
  StartColor #FE0600
  EndColor #FE0600
  FontColor #f7f7f5
}

[*] - -> Proposed
Proposed - -> Accepted
Proposed - -> Superseded
Proposed - -> Deprecated
Accepted - -> Superseded
Accepted - -> Deprecated
Superseded - -> [*]
Deprecated - -> [*]

@enduml

PlantUML version 1.2018.02(Fri Mar 09 17:20:44 GMT 2018)
(GPL source distribution)
Java Runtime: Java(TM) SE Runtime Environment
JVM: Java HotSpot(TM) 64-Bit Server VM
Java Version: 1.8.0_101-b13
Operating System: Mac OS X
OS Version: 10.12.4
Default Encoding: UTF-8
Language: en
Country: GB
--></g></svg>